<svg t="1698765654321" class="icon" viewBox="0 0 1024 1024" version="1.1" xmlns="http://www.w3.org/2000/svg" p-id="3491" width="200" height="200"><path d="M448 768A320 320 0 1 1 768 448a320 320 0 0 1-320 320z m0-512a192 192 0 1 0 192 192 192 192 0 0 0-192-192z" fill="currentColor" p-id="3492"></path><path d="M960 992a32 32 0 0 1-22.624-9.376l-96-96a32 32 0 0 1 45.248-45.248l96 96A32 32 0 0 1 960 992z" fill="currentColor" p-id="3493"></path><path d="M768 896a32 32 0 0 1-22.624-9.376l-96-96a32 32 0 0 1 45.248-45.248l96 96A32 32 0 0 1 768 896z" fill="currentColor" p-id="3494"></path><path d="M960 256a32 32 0 0 1-9.376 22.624l-96 96a32 32 0 0 1-45.248-45.248l96-96A32 32 0 0 1 960 256z" fill="currentColor" p-id="3495"></path><path d="M768 160a32 32 0 0 1-9.376 22.624l-96 96a32 32 0 0 1-45.248-45.248l96-96A32 32 0 0 1 768 160z" fill="currentColor" p-id="3496"></path></svg>